<?xml version="1.0" standalone="no"?>
<!DOCTYPE svg PUBLIC "-//W3C//DTD SVG 20010904//EN"
 "http://www.w3.org/TR/2001/REC-SVG-20010904/DTD/svg10.dtd">
<svg version="1.0" xmlns="http://www.w3.org/2000/svg"
 width="260.000000pt" height="260.000000pt" viewBox="0 0 260.000000 260.000000"
 preserveAspectRatio="xMidYMid meet">
<metadata>
Created by potrace 1.11, written by Peter Selinger 2001-2013
</metadata>
<g transform="translate(0.000000,260.000000) scale(0.100000,-0.100000)"
fill="#000000" stroke="none">
<path d="M0 1300 l0 -1300 124 0 c98 0 126 3 136 15 7 8 21 15 33 15 23 0 87
37 87 50 0 5 18 14 40 20 24 6 47 21 56 36 15 22 71 54 95 54 5 0 9 -9 9 -20
0 -15 -13 -26 -47 -41 -25 -11 -57 -31 -69 -44 -13 -14 -31 -25 -40 -25 -10 0
-38 -12 -63 -27 l-46 -28 90 -3 c78 -2 91 0 105 17 8 10 34 28 56 40 23 11 44
29 47 40 3 12 25 30 53 43 37 18 50 29 52 48 2 19 16 33 51 53 45 25 49 25 56
9 7 -19 -56 -79 -90 -84 -13 -2 -20 -11 -20 -27 0 -19 -11 -31 -47 -50 -26
-14 -52 -35 -58 -47 -7 -12 -22 -27 -34 -32 -18 -9 -13 -11 29 -11 33 -1 66 6
97 21 39 19 47 28 48 51 0 16 5 27 14 27 8 0 21 6 28 14 8 7 24 17 36 20 19 6
22 4 22 -17 0 -18 -12 -32 -50 -55 -86 -53 -74 -59 127 -60 98 0 185 4 195 9
10 6 19 5 23 -1 11 -17 66 -11 92 10 23 18 28 19 43 5 23 -21 33 -19 60 10 18
19 34 25 65 25 29 0 47 6 60 20 10 11 30 20 45 20 16 0 41 12 61 30 19 16 41
30 49 30 8 0 32 16 53 35 21 19 42 35 46 35 25 0 241 238 241 266 0 7 7 14 15
18 8 3 15 14 15 25 0 11 6 24 13 28 16 11 57 69 57 83 0 18 -19 11 -31 -12 -7
-13 -18 -29 -26 -36 -7 -7 -13 -20 -13 -28 0 -8 -4 -14 -10 -14 -5 0 -12 -11
-16 -25 -3 -13 -15 -27 -25 -30 -11 -4 -30 -23 -43 -43 -13 -20 -35 -48 -50
-62 -14 -14 -41 -40 -59 -58 -17 -19 -51 -45 -74 -58 -23 -14 -47 -32 -54 -40
-7 -8 -28 -22 -48 -30 -20 -8 -46 -24 -58 -36 -14 -13 -35 -21 -55 -20 -24 1
-42 -7 -64 -29 -28 -27 -34 -29 -52 -18 -19 12 -25 10 -50 -14 -32 -31 -44
-33 -76 -12 -21 14 -24 13 -51 -15 -34 -35 -45 -37 -68 -10 -22 26 -29 25 -66
-6 -17 -14 -38 -23 -46 -20 -27 10 -16 42 26 76 l41 33 22 -27 21 -26 33 31
c32 30 42 32 83 15 9 -4 26 3 43 19 21 20 35 25 53 20 18 -4 34 2 63 25 21 16
48 30 60 30 12 0 40 16 63 35 22 19 47 35 54 35 8 0 33 18 55 40 23 22 45 40
49 40 10 0 160 173 199 229 19 28 43 62 53 74 10 12 42 54 70 92 29 39 75 93
102 121 28 28 61 65 75 82 14 18 31 32 38 32 7 0 36 24 65 54 28 29 63 56 77
59 14 4 46 27 73 52 34 33 53 44 66 40 27 -8 91 49 91 81 0 33 -13 30 -71 -16
-28 -22 -59 -40 -70 -40 -10 0 -42 -22 -70 -49 -28 -27 -57 -47 -63 -45 -7 3
-40 -25 -73 -61 -34 -36 -66 -65 -71 -65 -16 0 -251 -287 -265 -323 -3 -9 -11
-17 -17 -17 -5 0 -10 -6 -10 -14 0 -7 -26 -42 -59 -77 -32 -35 -75 -83 -96
-106 -20 -24 -43 -43 -49 -43 -7 0 -31 -20 -55 -44 -24 -25 -54 -47 -67 -50
-12 -3 -38 -20 -56 -36 -24 -22 -39 -29 -56 -25 -16 4 -31 -3 -54 -24 -25 -23
-38 -28 -62 -24 -24 4 -38 -1 -59 -21 -33 -31 -35 -31 -58 -10 -20 18 -19 18
-85 -31 -9 -6 -19 -4 -32 8 -23 21 -46 22 -62 1 -27 -31 -48 -36 -61 -13 -10
20 -7 26 27 55 45 39 51 40 76 17 13 -12 23 -14 32 -8 60 44 63 46 91 35 24
-9 31 -7 60 19 23 19 41 28 54 24 13 -3 35 6 63 26 23 17 49 31 57 31 8 0 36
18 62 40 26 22 51 40 55 40 12 0 167 152 208 205 22 27 43 52 46 55 4 3 40 48
82 100 92 116 301 330 322 330 8 0 42 25 74 55 33 30 68 55 78 55 11 0 47 22
80 49 43 35 67 48 82 45 34 -10 72 23 72 63 l0 34 -58 -40 c-32 -23 -69 -41
-83 -41 -16 0 -42 -15 -69 -40 -24 -22 -51 -40 -60 -40 -17 0 -128 -90 -143
-116 -4 -8 -16 -14 -27 -14 -11 0 -45 -30 -82 -72 -35 -40 -81 -90 -104 -113
-22 -22 -60 -65 -85 -95 -24 -30 -46 -57 -49 -60 -3 -3 -25 -30 -50 -60 -65
-80 -227 -240 -242 -240 -8 0 -29 -15 -47 -34 -18 -19 -48 -37 -65 -40 -18 -4
-48 -20 -66 -36 -25 -22 -39 -28 -61 -23 -21 4 -36 -1 -59 -21 -34 -28 -45
-32 -55 -16 -11 18 -38 11 -67 -17 -26 -25 -29 -25 -46 -10 -24 22 -44 21 -75
-3 -14 -11 -30 -20 -36 -20 -16 0 -37 43 -23 48 6 2 27 16 47 32 35 28 37 28
64 12 27 -15 29 -15 68 16 35 28 42 30 53 17 17 -20 21 -19 60 16 23 22 44 32
64 31 22 -1 42 10 73 39 23 21 51 39 61 39 10 0 31 14 48 31 16 17 49 48 74
68 51 41 144 140 371 395 24 27 57 57 73 67 16 10 61 49 100 87 39 38 83 72
98 76 34 8 133 94 133 115 0 29 -46 12 -102 -37 -30 -26 -71 -56 -90 -67 -65
-36 -287 -250 -417 -403 -43 -51 -81 -92 -85 -92 -3 0 -42 -34 -86 -75 -44
-42 -98 -84 -120 -94 -22 -10 -51 -30 -64 -45 -18 -19 -34 -26 -60 -26 -26 0
-44 -8 -68 -32 -30 -29 -35 -30 -57 -19 -22 12 -28 10 -61 -15 -31 -23 -40
-26 -56 -16 -28 18 -53 15 -74 -8 -25 -27 -44 -25 -55 6 -11 29 -2 31 -86 -23
-22 -14 -27 -14 -35 -2 -13 21 -12 25 23 54 55 46 75 51 96 25 l18 -22 31 26
c32 27 57 33 68 16 11 -17 33 -11 68 20 27 23 41 29 63 24 23 -4 37 2 71 30
22 20 52 36 65 36 13 0 42 18 70 44 26 24 64 54 84 66 19 12 133 120 254 239
120 119 229 222 243 228 14 7 64 46 110 87 47 42 94 76 105 76 19 0 80 40 140
92 23 19 44 28 68 28 22 0 47 9 68 25 18 14 38 25 44 25 12 0 32 31 32 48 0 6
-12 13 -26 16 -34 9 -26 25 26 56 52 31 59 45 25 54 -34 9 -32 32 5 51 l30 16
0 119 c0 134 -3 138 -66 99 -33 -20 -74 -19 -74 1 0 11 73 50 93 50 16 0 47
31 47 48 0 7 -11 9 -30 6 -41 -9 -41 19 0 38 l30 13 0 128 c0 83 -4 126 -10
122 -6 -3 -31 -10 -58 -15 -26 -5 -59 -12 -74 -16 -18 -4 -28 -2 -28 5 0 6 8
11 18 11 10 0 22 4 28 10 5 5 34 13 64 17 l55 8 3 83 3 82 -105 0 c-59 0 -108
-4 -111 -10 -3 -5 -23 -10 -43 -9 -33 1 -34 2 -12 9 14 4 -505 8 -1152 9
l-1178 1 0 -1300z m2165 1250 c-3 -5 -10 -10 -16 -10 -5 0 -9 5 -9 10 0 6 7
10 16 10 8 0 12 -4 9 -10z m-125 -29 c0 -10 -61 -24 -69 -16 -3 4 0 9 6 13 18
11 63 13 63 3z m320 -31 c0 -5 -12 -12 -27 -15 -34 -7 -105 -26 -196 -54 -37
-12 -77 -21 -88 -21 -11 0 -32 -6 -47 -14 -15 -8 -49 -17 -76 -21 -72 -11 -56
16 20 33 32 7 68 16 79 21 22 9 80 25 170 46 33 7 71 18 85 24 32 13 80 14 80
1z m-603 -41 c-10 -6 -44 -13 -75 -15 -53 -5 -56 -4 -38 10 13 10 39 16 75 16
44 -1 52 -3 38 -11z m-167 -29 c11 -7 1 -9 -35 -9 -44 1 -46 2 -20 9 17 4 32
8 35 9 3 0 12 -4 20 -9z m-190 -40 c-36 -11 -52 -11 -45 0 3 6 21 10 38 9 31
-1 31 -1 7 -9z m890 0 c0 -14 -30 -28 -118 -55 -42 -14 -126 -40 -187 -59 -60
-19 -141 -45 -180 -56 -38 -12 -83 -27 -100 -35 -33 -14 -81 -33 -165 -63 -50
-18 -82 -27 -180 -52 -19 -5 -75 -23 -125 -40 -108 -37 -165 -46 -193 -31 -16
8 -35 6 -87 -10 -74 -23 -90 -21 -98 11 -4 16 -2 20 11 16 52 -15 74 -17 86
-7 16 13 149 40 196 39 30 -1 80 14 260 77 19 7 69 23 110 35 41 13 89 29 107
37 17 7 39 13 50 13 10 1 29 7 43 15 14 8 36 14 48 15 13 0 36 6 50 14 15 8
81 31 147 51 66 20 136 43 155 50 105 40 170 54 170 35z m-1078 -16 c50 -9 38
-24 -18 -24 -32 0 -44 4 -44 15 0 17 8 18 62 9z m624 -13 c-3 -5 -23 -12 -43
-16 -21 -4 -42 -10 -48 -15 -16 -13 -160 -60 -183 -60 -24 0 -120 -23 -193
-45 -26 -8 -58 -15 -72 -15 -14 0 -38 -6 -54 -14 -15 -8 -51 -20 -80 -26 -44
-10 -56 -9 -73 3 l-21 15 21 15 c16 11 38 13 87 9 43 -3 67 -1 72 7 4 6 34 16
67 22 32 6 63 15 69 20 5 5 20 9 34 9 22 0 57 9 202 55 26 8 57 15 70 15 13 1
38 7 54 15 34 15 99 20 91 6z m739 -11 c0 -16 -193 -81 -217 -74 -27 8 -22 23
10 29 15 4 42 13 60 21 18 8 43 14 55 14 12 1 33 7 47 15 28 16 45 14 45 -5z
m-357 -91 c-3 -9 -198 -91 -284 -119 -22 -7 -43 -16 -49 -20 -5 -4 -23 -10
-40 -14 -29 -6 -208 -80 -332 -137 -35 -16 -82 -33 -105 -39 -24 -5 -65 -18
-93 -28 -260 -99 -245 -95 -276 -82 -24 10 -35 10 -57 0 -29 -15 -109 -39
-130 -40 -10 0 -10 5 -2 19 17 32 -16 43 -59 20 -41 -22 -85 -25 -79 -6 3 6
27 17 55 22 28 6 55 13 59 18 11 10 54 9 54 -2 0 -20 40 -21 90 -1 29 11 80
23 114 26 53 5 109 22 256 79 19 7 62 23 95 36 33 12 74 28 90 34 40 16 138
55 255 100 52 20 140 53 195 75 55 21 112 42 128 45 15 4 30 11 33 16 8 13 86
11 82 -2z m280 -25 c-3 -17 -192 -88 -225 -85 -25 2 -12 21 27 41 21 11 48 20
59 20 11 0 23 4 26 10 7 11 60 28 93 29 16 1 22 -4 20 -15z m-1453 -44 c-3 -5
-21 -10 -38 -9 -27 0 -29 2 -12 9 28 12 57 12 50 0z m1100 -68 c-17 -16 -342
-162 -361 -162 -3 0 -90 -42 -193 -93 -103 -52 -211 -101 -240 -111 -29 -9
-82 -31 -119 -48 -141 -64 -156 -69 -190 -63 -24 4 -53 -2 -104 -21 -65 -26
-71 -27 -83 -11 -15 21 -64 22 -91 2 -24 -18 -64 -19 -64 -1 0 14 85 50 144
62 24 4 36 2 36 -5 0 -16 35 -13 88 8 77 30 117 41 151 41 18 0 70 18 116 40
46 22 85 40 88 40 5 0 102 43 202 90 22 10 65 29 95 43 30 13 75 33 100 45 25
11 72 32 105 45 33 14 98 43 145 65 112 51 109 50 155 51 39 1 39 1 20 -17z
m290 0 c0 -15 -174 -92 -209 -92 -41 0 -40 19 1 36 21 9 65 29 98 45 61 29
110 34 110 11z m-1625 -102 c0 -5 -7 -10 -16 -10 -8 0 -12 5 -9 10 3 6 10 10
16 10 5 0 9 -4 9 -10z m1301 -19 c-10 -10 -110 -64 -222 -120 -202 -100 -229
-115 -424 -225 -55 -31 -106 -56 -113 -56 -8 0 -71 -29 -140 -66 -105 -53
-133 -64 -159 -59 -24 4 -50 -2 -99 -26 l-67 -31 -18 23 -17 23 -44 -21 c-64
-32 -84 -33 -80 -5 3 19 -1 22 -27 22 -17 0 -46 -8 -66 -17 -25 -12 -38 -14
-46 -6 -12 12 41 46 98 62 51 14 53 14 53 -9 0 -24 28 -27 68 -6 40 20 102 31
102 17 0 -18 27 -13 96 19 35 17 87 35 115 40 46 9 228 95 489 233 188 99 416
210 445 218 17 4 40 7 53 8 21 1 22 1 3 -18z m267 2 c5 -18 -177 -103 -222
-103 -20 0 -36 4 -36 8 0 7 162 88 210 105 22 8 43 4 48 -10z m200 -34 c5 -26
-130 -85 -164 -72 -27 10 -13 23 59 58 76 37 100 40 105 14z m-468 -77 c0 -9
-36 -32 -121 -77 -219 -117 -319 -175 -398 -232 -32 -23 -83 -55 -112 -73 -30
-17 -61 -35 -69 -40 -8 -5 -37 -20 -65 -33 -27 -13 -66 -33 -85 -44 -131 -75
-152 -85 -173 -80 -13 4 -42 -4 -72 -19 -73 -37 -105 -46 -105 -29 0 25 -17
25 -61 1 -24 -13 -55 -27 -68 -31 -21 -7 -23 -5 -19 19 4 22 2 26 -17 26 -13
0 -36 -7 -51 -15 -31 -16 -64 -20 -64 -7 1 26 53 56 122 69 21 4 28 1 28 -11
0 -23 31 -20 90 10 45 22 56 24 75 14 20 -11 33 -7 105 29 45 22 91 41 101 41
10 0 31 6 46 12 23 10 208 114 263 147 63 39 246 146 282 165 23 13 84 47 133
76 111 65 235 109 235 82z m225 -10 c0 -7 -13 -20 -30 -29 -16 -9 -37 -20 -45
-25 -43 -24 -121 -58 -133 -58 -14 0 -215 -118 -247 -145 -8 -7 -35 -23 -60
-36 -59 -32 -171 -108 -304 -209 -33 -25 -96 -65 -141 -90 -45 -25 -114 -67
-153 -93 -57 -39 -77 -47 -99 -43 -22 5 -40 -2 -81 -29 -61 -40 -70 -42 -88
-17 -11 14 -16 15 -31 5 -55 -38 -96 -55 -104 -42 -4 7 -6 16 -3 20 13 21 -24
18 -72 -6 -30 -15 -57 -25 -61 -21 -12 12 21 57 46 63 14 3 33 11 41 18 30 25
58 27 65 5 3 -11 10 -20 14 -20 10 0 79 36 97 51 12 9 20 9 38 -1 22 -11 32
-8 106 34 45 25 92 46 105 46 12 0 40 13 61 28 33 24 79 53 152 97 9 6 98 64
197 129 236 155 284 186 291 186 3 0 12 6 20 14 8 8 40 24 71 35 32 11 76 31
98 43 155 85 203 108 225 105 14 -1 25 -8 25 -15z m190 -31 c0 -8 -21 -25 -47
-38 -27 -13 -48 -28 -48 -33 0 -12 -77 -13 -84 -1 -7 11 21 35 61 50 18 7 38
20 44 28 16 18 74 13 74 -6z m-1875 -1 c-20 -13 -50 -13 -50 0 0 6 15 10 33
10 24 0 28 -3 17 -10z m1653 -95 c-3 -8 -22 -23 -42 -32 -20 -9 -45 -24 -56
-33 -11 -10 -41 -24 -66 -32 -25 -9 -77 -38 -115 -64 -38 -27 -109 -76 -159
-109 -49 -33 -146 -105 -215 -160 -69 -55 -129 -103 -135 -107 -5 -4 -23 -18
-40 -31 -16 -13 -41 -30 -55 -37 -14 -7 -69 -44 -123 -82 -67 -47 -103 -67
-116 -63 -11 3 -37 -7 -69 -29 -66 -44 -74 -46 -94 -29 -15 13 -22 12 -62 -16
-52 -36 -76 -39 -76 -11 0 26 -16 25 -65 -5 -22 -13 -46 -25 -52 -25 -16 0
-17 32 -1 48 20 20 -16 15 -67 -10 -34 -17 -48 -19 -57 -10 -12 12 5 42 25 42
6 0 18 7 27 15 9 8 31 18 48 21 28 6 32 4 32 -15 0 -27 15 -27 67 1 36 19 46
21 63 10 28 -17 40 -15 88 18 32 21 51 28 71 24 21 -5 42 4 94 40 36 25 79 49
94 52 37 10 53 20 221 144 185 136 350 255 446 320 24 17 50 30 57 30 13 0
200 108 227 130 13 12 92 29 104 23 4 -2 5 -10 1 -18z m185 -23 c-2 -8 -12
-20 -23 -26 -10 -6 -36 -21 -57 -33 -21 -13 -51 -23 -67 -23 -16 0 -42 -10
-58 -22 -34 -28 -61 -45 -88 -57 -12 -5 -27 -16 -34 -25 -7 -9 -23 -16 -36
-16 -13 0 -68 -37 -131 -87 -60 -47 -121 -93 -135 -102 -27 -17 -107 -83 -168
-139 -132 -123 -199 -182 -207 -182 -5 0 -51 -34 -103 -75 -66 -52 -103 -75
-122 -75 -17 0 -47 -16 -78 -40 -44 -35 -53 -39 -70 -28 -22 13 -45 5 -94 -34
l-28 -23 -18 24 -19 24 -47 -31 c-50 -33 -65 -33 -65 -2 0 31 -14 31 -61 -1
-53 -35 -59 -36 -59 -5 0 17 13 31 51 55 58 36 79 39 79 11 0 -25 16 -24 55 1
49 31 55 32 80 19 21 -11 28 -9 66 19 27 19 55 31 75 31 22 0 51 14 95 46 34
26 76 52 93 59 28 12 102 68 317 239 41 32 79 64 84 71 23 26 212 168 243 181
18 8 82 48 143 89 61 41 119 75 130 75 30 0 110 41 178 89 28 21 84 16 79 -7z
m-1908 -12 c0 -5 -9 -10 -21 -10 -11 0 -17 5 -14 10 3 6 13 10 21 10 8 0 14
-4 14 -10z m150 -40 c0 -5 -12 -10 -27 -10 -16 0 -41 -9 -58 -20 -35 -23 -65
-26 -65 -6 0 16 21 26 55 26 13 0 27 5 30 10 3 6 19 10 36 10 16 0 29 -4 29
-10z m1734 -65 c-4 -9 -26 -27 -50 -41 -24 -14 -44 -30 -44 -35 0 -5 -15 -9
-34 -9 -26 0 -53 -15 -120 -65 -47 -36 -93 -65 -101 -65 -12 0 -152 -114 -190
-155 -5 -6 -28 -24 -50 -40 -22 -16 -101 -91 -175 -165 -74 -74 -151 -146
-170 -160 -19 -13 -65 -50 -101 -82 -37 -32 -76 -58 -86 -58 -11 0 -40 -16
-64 -35 -31 -25 -54 -35 -79 -35 -26 0 -45 -9 -69 -30 -30 -28 -35 -30 -50
-15 -23 20 -30 19 -74 -11 -39 -26 -67 -26 -67 1 0 22 -18 19 -56 -10 -41 -32
-64 -32 -64 -2 0 17 13 32 49 55 55 36 69 39 77 17 8 -21 22 -19 58 8 39 30
64 39 71 27 11 -17 31 -11 79 26 27 20 53 33 62 30 16 -6 54 15 94 52 14 13
48 37 76 53 27 16 64 41 82 57 64 57 99 88 182 162 47 41 105 94 130 117 25
23 59 53 75 68 17 15 44 40 62 56 17 16 37 29 44 29 11 0 91 56 179 127 22 17
55 34 72 38 35 7 158 83 158 97 0 4 22 8 50 8 40 0 48 -3 44 -15z m-2061 -72
c-7 -2 -19 -2 -25 0 -7 3 -2 5 12 5 14 0 19 -2 13 -5z m195 -24 c-3 -8 -92
-46 -115 -49 -2 0 -3 6 -3 14 0 16 63 45 98 45 13 1 22 -4 20 -10z m-218 -109
c-20 -13 -83 -13 -75 0 3 6 25 10 48 10 31 0 38 -3 27 -10z m138 -32 c-6 -16
-69 -48 -96 -48 -35 0 -22 23 17 31 18 4 38 12 44 18 15 15 40 14 35 -1z m121
-49 c-13 -19 -118 -63 -129 -53 -18 18 70 70 124 73 16 1 17 -1 5 -20z m-320
-53 c-11 -9 -59 -15 -59 -7 0 5 12 11 28 13 27 3 39 1 31 -6z m131 -56 c0 -11
-91 -40 -104 -32 -5 3 1 13 13 24 24 19 91 25 91 8z m120 -38 c0 -12 -16 -23
-52 -37 -63 -23 -70 -24 -76 -7 -2 7 18 22 50 37 64 29 78 30 78 7z m120 -30
c0 -18 -80 -62 -112 -62 -35 0 -17 27 34 53 61 32 78 34 78 9z m-415 -12 c-3
-5 -17 -10 -31 -10 -14 0 -22 4 -19 10 3 6 17 10 31 10 14 0 22 -4 19 -10z
m125 -59 c0 -11 -54 -31 -83 -31 -19 0 -20 1 -2 20 18 20 85 29 85 11z m118
-43 c-6 -16 -54 -44 -90 -53 -47 -12 -35 23 15 45 49 22 80 25 75 8z m117 -29
c10 -15 -23 -47 -56 -54 -16 -4 -31 -11 -34 -16 -11 -17 -35 -9 -35 11 0 15
14 27 53 44 61 29 64 29 72 15z m-405 -3 c0 -9 -30 -14 -35 -6 -4 6 3 10 14
10 12 0 21 -2 21 -4z m128 -68 c-5 -15 -85 -34 -96 -24 -12 13 30 36 66 36 22
0 32 -4 30 -12z m109 -61 c-6 -15 -86 -42 -95 -32 -13 12 16 39 54 50 39 11
50 6 41 -18z m-272 -7 c-3 -5 -17 -10 -31 -10 -14 0 -22 4 -19 10 3 6 17 10
31 10 14 0 22 -4 19 -10z m403 -22 c-6 -18 -78 -56 -106 -57 -32 -1 -24 18 18
47 36 24 94 31 88 10z m117 -23 c0 -20 -98 -80 -115 -70 -18 11 11 50 53 72
48 24 62 24 62 -2z m-382 -19 c-1 -6 -21 -16 -45 -23 -52 -15 -48 -15 -48 -3
0 14 52 40 75 37 11 -1 19 -6 18 -11z m117 -50 c0 -7 -7 -19 -15 -26 -19 -16
-95 -26 -95 -12 0 14 16 24 60 38 48 16 50 16 50 0z m-300 -16 c0 -5 -8 -10
-17 -10 -15 0 -16 2 -3 10 19 12 20 12 20 0z m30 6 c0 -3 -4 -8 -10 -11 -5 -3
-10 -1 -10 4 0 6 5 11 10 11 6 0 10 -2 10 -4z m390 -41 c0 -15 -68 -55 -95
-55 -26 0 -16 30 18 50 38 24 77 26 77 5z m118 -26 c-4 -28 -92 -79 -109 -62
-16 16 0 36 54 62 52 26 59 26 55 0z m126 -5 c10 -27 7 -33 -28 -48 -18 -8
-37 -19 -40 -25 -12 -19 -46 -13 -46 9 0 13 17 30 48 50 55 35 58 35 66 14z
m-504 -3 c0 -10 -92 -42 -100 -35 -3 3 6 14 19 25 23 19 81 26 81 10z m120
-61 c0 -14 -11 -22 -42 -30 -24 -6 -49 -13 -55 -15 -20 -7 -15 10 10 32 20 19
43 29 75 32 6 0 12 -8 12 -19z m-283 -6 c-3 -3 -12 -4 -19 -1 -8 3 -5 6 6 6
11 1 17 -2 13 -5z m413 -32 c0 -12 -16 -27 -45 -41 -78 -39 -100 -4 -24 39 44
24 69 25 69 2z m-262 -34 c-5 -14 -67 -30 -82 -21 -5 3 -1 12 9 20 24 17 78
18 73 1z m380 -5 c-4 -21 -88 -67 -100 -55 -21 21 34 69 80 71 17 1 23 -4 20
-16z m127 -18 c0 -11 -11 -25 -23 -31 -13 -6 -29 -17 -35 -23 -6 -6 -22 -11
-35 -11 -35 0 -24 29 23 62 45 31 70 32 70 3z m-375 -30 c0 -17 -41 -39 -88
-48 l-32 -7 16 25 c23 35 104 59 104 30z m-290 -5 c0 -5 -10 -10 -22 -9 -22 0
-22 1 -3 9 11 5 21 9 23 9 1 1 2 -3 2 -9z m420 -45 c0 -16 -69 -55 -99 -55
-30 0 -15 34 22 53 41 20 77 21 77 2z m-270 -29 c0 -14 -29 -26 -67 -26 -52 0
-8 38 45 39 12 1 22 -5 22 -13z m390 -3 c0 -21 -61 -63 -90 -63 -32 0 -23 28
18 54 44 30 72 33 72 9z m130 -23 c0 -11 -17 -28 -44 -44 -53 -31 -66 -32 -66
-6 0 13 16 30 47 49 50 31 63 31 63 1z m128 -5 c2 -22 -63 -75 -92 -75 -32 0
-18 46 22 73 43 30 66 30 70 2z m-768 -15 c0 -5 -12 -10 -26 -10 -14 0 -23 4
-19 10 3 6 15 10 26 10 10 0 19 -4 19 -10z m270 2 c0 -17 -37 -42 -70 -49 -19
-3 -53 -19 -76 -35 -42 -28 -89 -38 -82 -17 2 7 26 20 53 31 28 11 59 28 71
39 11 10 28 19 37 19 9 0 19 5 22 10 7 12 45 13 45 2z m130 -58 c0 -9 -22 -25
-53 -40 -30 -13 -61 -32 -71 -42 -9 -11 -35 -25 -59 -32 -23 -7 -47 -20 -54
-28 -6 -7 -26 -18 -45 -22 -18 -5 -44 -12 -58 -16 -25 -7 -25 -7 -6 14 11 12
37 27 60 33 22 6 53 21 68 34 15 13 43 28 62 35 19 6 37 17 40 25 14 39 116
73 116 39z m130 -29 c0 -18 -68 -65 -93 -65 -13 0 -18 6 -15 23 5 37 108 78
108 42z m250 -34 c0 -22 -57 -71 -82 -71 -33 0 -20 38 23 70 43 31 59 31 59 1z
m-775 -11 c-3 -5 -20 -10 -36 -10 -18 0 -28 4 -24 10 3 6 20 10 36 10 18 0 28
-4 24 -10z m805 -114 c0 -16 -12 -32 -38 -50 -47 -32 -62 -33 -62 -2 0 16 12
32 38 49 47 32 62 33 62 3z m-820 -16 c0 -5 -9 -10 -21 -10 -11 0 -17 5 -14
10 3 6 13 10 21 10 8 0 14 -4 14 -10z"/>
<path d="M2570 1620 l-25 -19 25 -9 c26 -10 35 1 28 33 -2 12 -7 11 -28 -5z"/>
<path d="M2567 1523 c-16 -8 -31 -21 -34 -29 -4 -10 -15 -13 -38 -8 -29 5 -41
0 -87 -36 -59 -47 -66 -64 -28 -68 17 -2 44 11 85 42 53 40 64 44 98 39 l37
-6 0 42 c0 22 -1 41 -2 40 -2 -1 -16 -8 -31 -16z"/>
<path d="M2526 1150 c-24 -22 -52 -40 -62 -40 -11 0 -42 -22 -69 -50 -27 -27
-55 -50 -61 -50 -7 0 -27 -18 -45 -40 -19 -22 -60 -68 -92 -102 -32 -33 -63
-70 -68 -82 -14 -34 -33 -60 -51 -74 -22 -16 -23 -42 -3 -42 8 0 15 7 15 16 0
9 32 50 70 91 39 41 70 80 70 87 0 6 15 19 33 29 17 10 43 34 57 53 14 19 43
43 65 53 22 11 53 35 69 55 19 24 34 35 45 31 22 -7 101 60 101 86 0 30 -27
22 -74 -21z"/>
<path d="M2574 1052 c-11 -2 -38 -21 -59 -42 -22 -22 -44 -40 -51 -40 -6 0
-32 -21 -57 -47 -25 -27 -51 -53 -59 -59 -7 -6 -24 -26 -38 -44 -14 -18 -37
-47 -52 -64 -15 -17 -28 -36 -28 -42 0 -7 -7 -14 -15 -18 -17 -6 -21 -36 -5
-36 6 0 13 7 17 15 9 26 57 77 218 233 24 23 51 42 60 42 22 0 98 75 93 92 -2
7 -12 12 -24 10z"/>
<path d="M2565 902 c-17 -10 -44 -35 -62 -55 -18 -20 -36 -37 -41 -37 -5 0
-26 -23 -48 -51 -21 -28 -47 -59 -57 -70 -10 -11 -22 -31 -27 -45 -9 -22 -8
-24 9 -14 11 5 22 18 25 27 3 10 36 45 72 78 155 140 166 152 163 168 -4 16
-6 15 -34 -1z"/>
<path d="M2560 728 c-55 -55 -96 -102 -116 -134 -10 -16 -26 -39 -37 -50 -14
-16 -15 -24 -6 -29 7 -5 17 0 25 11 7 10 18 24 24 31 5 7 10 15 10 17 0 3 32
37 71 75 52 52 70 76 67 92 -3 21 -5 21 -38 -13z"/>
<path d="M2552 528 c-24 -28 -45 -62 -48 -75 -4 -12 -10 -23 -15 -23 -5 0 -15
-15 -23 -33 -7 -18 -25 -46 -39 -61 -15 -16 -29 -37 -32 -47 -4 -11 -11 -19
-16 -19 -5 0 -9 -6 -9 -14 0 -7 -17 -31 -38 -52 -21 -22 -58 -65 -81 -96 -24
-32 -51 -60 -62 -63 -10 -4 -24 -15 -29 -26 -9 -16 -7 -19 11 -19 29 0 101 76
174 184 32 48 62 89 67 92 4 3 14 20 22 38 7 18 25 45 40 61 14 15 26 31 26
36 0 4 23 31 50 59 37 38 50 59 50 81 0 16 -1 29 -3 29 -2 0 -22 -23 -45 -52z"/>
<path d="M2018 395 c-33 -45 -71 -84 -186 -192 -18 -18 -41 -33 -48 -33 -8 0
-31 -16 -51 -35 -20 -20 -46 -35 -59 -35 -13 0 -39 -14 -59 -31 -26 -23 -41
-30 -58 -25 -17 4 -30 -1 -47 -19 l-23 -25 65 0 c59 0 67 3 94 30 16 16 38 30
50 30 11 0 39 16 61 35 23 19 45 35 50 35 6 0 26 17 46 38 19 20 48 48 62 62
14 14 46 52 70 85 24 33 51 68 60 78 9 10 15 26 13 35 -2 11 -14 1 -40 -33z"/>
<path d="M2582 350 c-13 -15 -74 -99 -102 -140 -49 -72 -93 -126 -114 -140
-14 -8 -34 -28 -46 -43 l-21 -27 30 0 c17 0 31 3 31 8 0 4 15 23 33 43 53 57
107 125 107 134 0 5 7 15 15 24 43 45 86 114 83 134 -3 19 -5 20 -16 7z"/>
<path d="M2039 231 c-120 -121 -165 -161 -183 -161 -9 0 -30 -15 -47 -32 l-31
-33 27 -3 c17 -2 35 4 49 17 12 12 27 21 33 21 24 0 243 236 243 261 0 18 -17
5 -91 -70z"/>
<path d="M2235 269 c-6 -18 -94 -111 -212 -222 -37 -35 -41 -47 -15 -47 21 0
111 83 157 145 17 22 38 46 47 53 10 7 18 20 18 28 0 8 7 17 15 20 16 7 21 44
6 44 -5 0 -13 -9 -16 -21z"/>
<path d="M2526 80 c-61 -73 -65 -80 -43 -80 34 0 117 94 117 133 0 15 -2 27
-3 27 -2 0 -34 -36 -71 -80z"/>
</g>
</svg>
